<svg width="9" height="20" viewBox="0 0 9 20" fill="none" xmlns="http://www.w3.org/2000/svg">
<path d="M8.77928 17.3119C8.89259 16.9747 8.93548 16.6178 8.90531 16.2633V3.73334C8.93553 3.37936 8.89261 3.02294 8.7792 2.68625C8.66579 2.34956 8.48432 2.03981 8.24609 1.77625C8.00785 1.51269 7.71794 1.30097 7.39439 1.15424C7.07083 1.00751 6.72054 0.928911 6.36531 0.92334H0.195312C1.93531 0.92334 2.53531 1.80334 2.73531 3.54334V16.4633C2.53531 18.1933 1.93531 19.0833 0.195312 19.0833H6.36531C6.721 19.0764 7.07149 18.9966 7.39507 18.8487C7.71866 18.7009 8.00847 18.4882 8.24656 18.2239C8.48466 17.9596 8.66597 17.6492 8.77928 17.3119Z" fill="#505050"/>
</svg>
