<svg width="128" height="265" viewBox="0 0 128 265" fill="none" xmlns="http://www.w3.org/2000/svg">
<path d="M125.893 238.887C127.542 233.978 128.167 228.783 127.728 223.624V41.2376C128.167 36.0851 127.543 30.897 125.892 25.9963C124.241 21.0955 121.6 16.5867 118.132 12.7504C114.664 8.91402 110.444 5.83215 105.735 3.69636C101.025 1.56057 95.9261 0.416538 90.7554 0.335449H0.945312C26.2726 0.335449 35.0062 13.1447 37.9174 38.472V226.535C35.0062 251.716 26.2726 264.671 0.945312 264.671H90.7554C95.9328 264.57 101.034 263.408 105.745 261.256C110.455 259.105 114.673 256.009 118.139 252.161C121.604 248.314 124.244 243.796 125.893 238.887Z" fill="#D7DC7D" fill-opacity="0.2"/>
</svg>
