<svg xmlns="http://www.w3.org/2000/svg" viewBox="0 0 19.5 19.5"><defs><style>.cls-1{fill:#4d4d4d;}.cls-2{fill:none;stroke:#4d4d4d;stroke-width:1.5px;}</style></defs><title>Ресурс 1</title><g id="Слой_2" data-name="Слой 2"><g id="Слой_1-2" data-name="Слой 1"><path class="cls-1" d="M3.07,13.15v-.06c0-.5,0-1,0-1.51,0-.05,0-.06.07-.08l.68-.17a.11.11,0,0,0,.08-.07c.06-.16.13-.32.2-.48a.08.08,0,0,0,0-.1l-.36-.62a.06.06,0,0,1,0-.09L4.8,8.9s0,0,.09,0l.62.37a.07.07,0,0,0,.09,0l.49-.2A.09.09,0,0,0,6.15,9c.07-.23.12-.46.18-.69,0-.05,0-.07.08-.06h.53v-3H10.4V3.07h6V7.8H13.64V9.53h2.24c-.2.58-.39,1.15-.58,1.73H13.64v2.15h2.15v1.26a.08.08,0,0,0,.06.09.86.86,0,0,1-.29,1.67.86.86,0,0,1-.26-1.67.08.08,0,0,0,.06-.09v-.82H13.63v.08c0,.25,0,.5,0,.75,0,0,0,.06.06.08a.86.86,0,1,1-1.12,1,.87.87,0,0,1,.56-1c.06,0,.07,0,.07-.11v-.8H11.48v.83s0,.06,0,.08a.86.86,0,1,1-.56,0c.06,0,.08,0,.08-.1,0-.39,0-.78,0-1.17v-.07H13.2V11.26H11c.19-.58.39-1.15.58-1.73H13.2V7.81H10.4V5.65h-3V8.24h.53c.06,0,.08,0,.09.07.05.23.11.45.17.68a.08.08,0,0,0,.07.07l.48.2a.09.09,0,0,0,.11,0l.6-.36a.08.08,0,0,1,.1,0L10.59,10s0,0,0,.1-.24.4-.37.6a.11.11,0,0,0,0,.11l.2.48a.09.09,0,0,0,.07.06c.22.07.45.12.68.18.05,0,.07,0,.07.09v1.49c0,.06,0,.08-.07.09l-.68.17a.08.08,0,0,0-.07.07l-.2.48a.09.09,0,0,0,0,.1l.36.61s0,.06,0,.1L9.53,15.76a.07.07,0,0,1-.1,0l-.61-.37a.09.09,0,0,0-.1,0l-.49.2a.14.14,0,0,0-.06.07c-.06.23-.12.46-.17.69,0,.05,0,.06-.08.06H6.41s-.07,0-.08-.05c0-.23-.11-.47-.18-.7,0,0,0,0-.06-.07l-.49-.2a.09.09,0,0,0-.09,0c-.21.11-.41.23-.61.36a.08.08,0,0,1-.1,0L3.73,14.7a.06.06,0,0,1,0-.09L4.08,14a.11.11,0,0,0,0-.11l-.21-.48a.14.14,0,0,0-.06-.07l-.72-.18h0m7.76-.33v-1l-.66-.16a.1.1,0,0,1-.08-.08,2.82,2.82,0,0,0-.35-.84.08.08,0,0,1,0-.1c.1-.18.21-.36.32-.54s0-.06,0-.09l-.6-.59s-.05,0-.09,0l-.53.32a.11.11,0,0,1-.12,0,2.74,2.74,0,0,0-.83-.34.1.1,0,0,1-.08-.09c0-.21-.11-.43-.17-.65h-1c0,.22-.11.44-.16.66,0,.05,0,.07-.08.08a3.09,3.09,0,0,0-.84.34.08.08,0,0,1-.1,0L5,9.43s-.06,0-.09,0l-.6.6,0,.05.35.57a.11.11,0,0,1,0,.12,2.79,2.79,0,0,0-.34.82.11.11,0,0,1-.1.09l-.64.17v1l.66.16a.08.08,0,0,1,.07.07,3.79,3.79,0,0,0,.35.86.06.06,0,0,1,0,.08c-.08.15-.17.3-.26.45l-.09.15.65.65s0,0,.08,0l.54-.32a.08.08,0,0,1,.11,0,2.69,2.69,0,0,0,.67.3c.07,0,.17,0,.21.07s0,.15.07.22l.12.49h1c.06-.22.12-.44.17-.66a.1.1,0,0,1,.08-.08,3.16,3.16,0,0,0,.83-.34.09.09,0,0,1,.11,0l.53.32a.08.08,0,0,0,.1,0l.6-.61s0,0,0-.08-.21-.36-.32-.53a.09.09,0,0,1,0-.12,3.23,3.23,0,0,0,.34-.81.1.1,0,0,1,.1-.1l.64-.16m0-5.45H16V3.49H10.83Zm.73,3.46h3.37a.07.07,0,0,0,.08-.06c.08-.25.16-.5.25-.75a.15.15,0,0,1,0-.06H11.92c-.06,0-.08,0-.09.06s-.1.31-.16.46-.07.22-.11.35m-.3,4.31a.43.43,0,1,0,.43.43.43.43,0,0,0-.43-.43m2.16,0a.43.43,0,0,0,0,.86.44.44,0,0,0,.44-.43.43.43,0,0,0-.43-.43m2.15.86a.43.43,0,1,0,0-.86.43.43,0,0,0,0,.86"/><path class="cls-1" d="M9.75,12.34A2.59,2.59,0,1,1,7.16,9.75a2.59,2.59,0,0,1,2.59,2.59M5,12.33a2.16,2.16,0,1,0,2.16-2.15A2.16,2.16,0,0,0,5,12.33"/><rect class="cls-1" x="11.26" y="3.93" width="4.31" height="0.42"/><rect class="cls-1" x="11.26" y="4.79" width="4.31" height="0.42"/><rect class="cls-1" x="11.26" y="5.65" width="4.31" height="0.42"/><rect class="cls-1" x="11.48" y="6.52" width="0.42" height="0.42"/><rect class="cls-1" x="12.34" y="6.52" width="0.42" height="0.42"/><rect class="cls-1" x="13.21" y="6.51" width="0.43" height="0.42"/><rect class="cls-1" x="14.07" y="6.51" width="0.42" height="0.42"/><rect class="cls-1" x="14.93" y="6.51" width="0.42" height="0.42"/><path class="cls-1" d="M7.16,13.63a1.3,1.3,0,1,1,1.3-1.3,1.3,1.3,0,0,1-1.3,1.3m-.86-1.3a.87.87,0,1,0,.87-.86.87.87,0,0,0-.87.86"/><rect class="cls-2" x="0.75" y="0.75" width="18" height="18" rx="0.6"/></g></g></svg>