<svg width="22" height="22" viewBox="0 0 22 22" fill="none" xmlns="http://www.w3.org/2000/svg">
<g clip-path="url(#clip0_241_344)">
<mask id="mask0_241_344" style="mask-type:luminance" maskUnits="userSpaceOnUse" x="-1138" y="-580" width="4345" height="2736">
<path d="M3206.65 -579.71H-1137.19V2155.85H3206.65V-579.71Z" fill="white"/>
</mask>
<g mask="url(#mask0_241_344)">
<mask id="mask1_241_344" style="mask-type:luminance" maskUnits="userSpaceOnUse" x="-1138" y="-580" width="4345" height="2736">
<path d="M3206.65 -579.71H-1137.19V2155.85H3206.65V-579.71Z" fill="white"/>
</mask>
<g mask="url(#mask1_241_344)">
<path d="M11.8205 6.6499H4.73047C6.73047 6.6499 7.42047 7.6499 7.65047 9.6499V11.6499C7.65047 13.2899 8.04047 14.8499 9.65047 14.8499H16.7405C15.3305 14.8499 14.7405 13.4199 14.7405 11.6499V9.8799C14.7718 9.47368 14.7201 9.06533 14.5885 8.67975C14.4568 8.29418 14.248 7.93946 13.9748 7.63722C13.7016 7.33499 13.3696 7.09157 12.9992 6.92183C12.6289 6.75208 12.2278 6.65956 11.8205 6.6499Z" stroke="#363636" stroke-width="1.5" stroke-linecap="round" stroke-linejoin="round"/>
<path d="M10.75 20.75C16.2728 20.75 20.75 16.2728 20.75 10.75C20.75 5.22715 16.2728 0.75 10.75 0.75C5.22715 0.75 0.75 5.22715 0.75 10.75C0.75 16.2728 5.22715 20.75 10.75 20.75Z" stroke="#363636" stroke-width="1.5" stroke-linecap="round" stroke-linejoin="round"/>
</g>
</g>
</g>
<defs>
<clipPath id="clip0_241_344">
<rect width="21.5" height="21.5" fill="white"/>
</clipPath>
</defs>
</svg>
