<svg width="133" height="30" viewBox="0 0 133 30" fill="none" xmlns="http://www.w3.org/2000/svg">
<path fill-rule="evenodd" clip-rule="evenodd" d="M16.4716 0.858887H11.3416C12.7916 0.858887 13.2916 1.58889 13.4516 3.03889V4.47889C13.4516 5.66889 13.7416 6.79889 14.9216 6.79889H20.0616C19.0616 6.79889 18.5816 5.79889 18.5816 4.47889V3.19889C18.6062 2.90463 18.5703 2.60845 18.476 2.32862C18.3817 2.0488 18.231 1.79129 18.0333 1.57199C17.8355 1.35269 17.5949 1.17627 17.3263 1.05362C17.0577 0.930965 16.7668 0.86469 16.4716 0.858887ZM21.4216 26.3589C21.4517 26.7134 21.4088 27.0703 21.2955 27.4075C21.1822 27.7447 21.0009 28.0551 20.7628 28.3194C20.5247 28.5838 20.2349 28.7964 19.9113 28.9443C19.5877 29.0921 19.2373 29.172 18.8816 29.1789H12.7116C14.4516 29.1789 15.0516 28.2889 15.2516 26.5589V13.6389C15.0516 11.8989 14.4516 11.0189 12.7116 11.0189H18.8816C19.2368 11.0245 19.5871 11.1031 19.9106 11.2498C20.2342 11.3965 20.5241 11.6082 20.7623 11.8718C21.0006 12.1354 21.182 12.4451 21.2954 12.7818C21.4089 13.1185 21.4518 13.4749 21.4216 13.8289V26.3589ZM7.02156 0.858887H0.851562C2.59156 0.858887 3.19156 1.73889 3.39156 3.47889V26.3889C3.39156 27.8189 3.73156 29.1789 5.16156 29.1789H11.3416C10.1116 29.1789 9.57156 27.9289 9.57156 26.3889V3.66889C9.60033 3.31438 9.55607 2.95775 9.4415 2.62103C9.32693 2.28432 9.14449 1.9747 8.90548 1.71131C8.66646 1.44793 8.37595 1.23638 8.05191 1.08976C7.72787 0.943138 7.37719 0.864561 7.02156 0.858887Z" fill="#505050"/>
<path d="M98.9222 8.71874C99.0794 8.5707 99.2651 8.45623 99.4679 8.3823C99.6708 8.30837 99.8866 8.27654 100.102 8.28874C100.354 8.28708 100.604 8.32764 100.842 8.40874C101.06 8.4763 101.261 8.58872 101.432 8.73874L101.842 7.82874C101.611 7.62955 101.337 7.48589 101.042 7.40874C100.718 7.3109 100.381 7.26367 100.042 7.26874C99.6765 7.24613 99.3101 7.2993 98.966 7.42492C98.6218 7.55054 98.3073 7.74589 98.0422 7.99874C97.5657 8.52594 97.3144 9.21867 97.3422 9.92874V11.0387H95.7422V12.0387H97.3422V20.0387H98.5822V12.0387H101.312V11.0387H98.5422V10.0387C98.51 9.57839 98.6569 9.1234 98.9522 8.76874" fill="#505050"/>
<path d="M106.422 19.0391C107.027 19.0526 107.624 18.9042 108.152 18.6091C108.656 18.3176 109.068 17.8916 109.342 17.3791C109.626 16.8052 109.773 16.1739 109.773 15.5341C109.773 14.8942 109.626 14.2629 109.342 13.6891C109.065 13.1814 108.653 12.7595 108.152 12.4691C107.627 12.1872 107.039 12.0397 106.442 12.0397C105.846 12.0397 105.258 12.1872 104.732 12.4691C104.247 12.7651 103.849 13.1866 103.582 13.6891C103.286 14.2589 103.131 14.8918 103.131 15.5341C103.131 16.1763 103.286 16.8092 103.582 17.3791C103.857 17.8916 104.269 18.3176 104.772 18.6091C105.287 18.9004 105.871 19.0489 106.462 19.0391M106.462 20.1191C105.648 20.1295 104.844 19.9261 104.132 19.5291C103.454 19.1441 102.891 18.5848 102.502 17.9091C102.109 17.1794 101.902 16.3632 101.902 15.5341C101.902 14.7049 102.109 13.8887 102.502 13.1591C102.888 12.4895 103.448 11.9367 104.122 11.5591C104.838 11.1643 105.645 10.9643 106.462 10.9791C107.29 10.9618 108.107 11.1618 108.832 11.5591C109.511 11.9309 110.072 12.4851 110.452 13.1591C110.839 13.8909 111.042 14.7062 111.042 15.5341C111.042 16.3619 110.839 17.1772 110.452 17.9091C110.069 18.5891 109.505 19.1498 108.822 19.5291C108.101 19.9285 107.287 20.132 106.462 20.1191Z" fill="#505050"/>
<path d="M117.141 19.0391C117.743 19.0528 118.337 18.9043 118.861 18.6091C119.365 18.3176 119.777 17.8917 120.051 17.3791C120.341 16.807 120.491 16.175 120.491 15.5341C120.491 14.8931 120.341 14.2611 120.051 13.6891C119.774 13.1814 119.362 12.7595 118.861 12.4691C118.337 12.1872 117.751 12.0397 117.156 12.0397C116.561 12.0397 115.976 12.1872 115.451 12.4691C114.948 12.7593 114.533 13.181 114.251 13.6891C113.962 14.2611 113.812 14.8931 113.812 15.5341C113.812 16.175 113.962 16.807 114.251 17.3791C114.53 17.892 114.945 18.3178 115.451 18.6091C115.966 18.9018 116.55 19.0504 117.141 19.0391ZM117.141 20.1191C116.326 20.1319 115.522 19.9283 114.811 19.5291C114.13 19.1444 113.564 18.5852 113.171 17.9091C112.784 17.1773 112.582 16.3619 112.582 15.5341C112.582 14.7062 112.784 13.8909 113.171 13.1591C113.559 12.487 114.122 11.9337 114.801 11.5591C115.516 11.162 116.324 10.9619 117.141 10.9791C117.965 10.9617 118.779 11.1617 119.501 11.5591C120.181 11.9337 120.744 12.487 121.131 13.1591C121.518 13.8909 121.721 14.7062 121.721 15.5341C121.721 16.3619 121.518 17.1773 121.131 17.9091C120.742 18.5848 120.18 19.1442 119.501 19.5291C118.779 19.926 117.966 20.1292 117.141 20.1191Z" fill="#505050"/>
<path d="M131.183 7.34912V12.7691C130.86 12.2487 130.414 11.816 129.883 11.5091C129.24 11.1484 128.511 10.9655 127.773 10.9791C126.97 10.9645 126.177 11.1611 125.473 11.5491C124.801 11.9218 124.246 12.4763 123.873 13.1491C123.492 13.8863 123.293 14.7041 123.293 15.5341C123.293 16.3641 123.492 17.182 123.873 17.9191C124.248 18.5955 124.802 19.1559 125.473 19.5391C126.174 19.9351 126.969 20.1355 127.773 20.1191C128.516 20.132 129.248 19.9455 129.893 19.5791C130.448 19.2549 130.909 18.7934 131.233 18.2391V20.0391H132.403V7.34912H131.183ZM130.763 17.3491C130.496 17.8714 130.087 18.308 129.583 18.6091C129.058 18.9016 128.465 19.0499 127.863 19.0391C127.272 19.0504 126.688 18.9019 126.173 18.6091C125.67 18.315 125.255 17.89 124.973 17.3791C124.684 16.8071 124.534 16.1751 124.534 15.5341C124.534 14.8932 124.684 14.2612 124.973 13.6891C125.258 13.1778 125.676 12.7538 126.184 12.463C126.691 12.1722 127.269 12.0256 127.853 12.0391C128.455 12.0283 129.048 12.1766 129.573 12.4691C130.074 12.7595 130.486 13.1815 130.763 13.6891C131.053 14.2612 131.203 14.8932 131.203 15.5341C131.203 16.1751 131.053 16.8071 130.763 17.3791" fill="#505050"/>
<path d="M39.0908 13.0388C38.7113 12.3591 38.1505 11.7982 37.4708 11.4188C36.764 11.0286 35.968 10.8287 35.1608 10.8388C34.4601 10.8231 33.7684 10.9994 33.1608 11.3488C32.8891 11.5115 32.6431 11.7137 32.4308 11.9488V7.48877H29.8008V20.0388H32.3108V18.9488C32.5364 19.2197 32.807 19.4497 33.1108 19.6288C33.7214 19.9708 34.411 20.1467 35.1108 20.1388C35.918 20.1488 36.714 19.9489 37.4208 19.5588C38.0965 19.1697 38.6559 18.6069 39.0408 17.9288C39.4451 17.1729 39.6482 16.3258 39.6308 15.4688C39.6585 14.6262 39.4728 13.7903 39.0908 13.0388ZM36.7108 16.8588C36.5128 17.2148 36.2271 17.5142 35.8808 17.7288C35.5252 17.9331 35.1208 18.0368 34.7108 18.0288C34.2978 18.0351 33.8906 17.9316 33.5308 17.7288C33.18 17.5198 32.893 17.219 32.7008 16.8588C32.4931 16.4432 32.3901 15.9832 32.4008 15.5188C32.3868 15.0508 32.4899 14.5868 32.7008 14.1688C32.8906 13.8094 33.1784 13.5112 33.5308 13.3088C33.8879 13.0982 34.2963 12.9909 34.7108 12.9988C35.1222 12.9896 35.5279 13.0971 35.8808 13.3088C36.2287 13.5169 36.5151 13.8137 36.7108 14.1688C36.9297 14.5842 37.0366 15.0495 37.0208 15.5188C37.0335 15.9846 36.9268 16.4459 36.7108 16.8588Z" fill="#505050"/>
<path d="M45.7622 17.979C46.175 17.9844 46.582 17.881 46.9422 17.679C47.2877 17.4668 47.5707 17.1665 47.7622 16.809C47.9733 16.3944 48.0798 15.9343 48.0722 15.469C48.0831 15.0002 47.9765 14.5361 47.7622 14.119C47.5733 13.7623 47.2895 13.4647 46.9422 13.259C46.5803 13.0558 46.1722 12.9491 45.7572 12.9491C45.3421 12.9491 44.934 13.0558 44.5722 13.259C44.2242 13.4672 43.9378 13.764 43.7422 14.119C43.5232 14.5344 43.4163 14.9997 43.4322 15.469C43.4194 15.9348 43.5262 16.3962 43.7422 16.809C43.9402 17.165 44.2259 17.4645 44.5722 17.679C44.9354 17.8822 45.346 17.9857 45.7622 17.979ZM45.7622 20.139C44.8643 20.158 43.9764 19.9481 43.1822 19.529C42.4573 19.1398 41.847 18.5675 41.4122 17.869C40.9862 17.1373 40.7617 16.3057 40.7617 15.459C40.7617 14.6123 40.9862 13.7808 41.4122 13.049C41.8441 12.3482 42.4551 11.7752 43.1822 11.389C43.9813 10.9941 44.8607 10.7886 45.7522 10.7886C46.6436 10.7886 47.523 10.9941 48.3222 11.389C49.0634 11.7795 49.684 12.3649 50.1168 13.0821C50.5497 13.7994 50.7785 14.6213 50.7785 15.459C50.7785 16.2968 50.5497 17.1187 50.1168 17.836C49.684 18.5532 49.0634 19.1386 48.3222 19.529C47.5343 19.946 46.6534 20.1559 45.7622 20.139Z" fill="#505050"/>
<path d="M61.2705 12.5387C60.9707 11.9734 60.5024 11.5155 59.9305 11.2287C59.3308 10.933 58.6689 10.7856 58.0005 10.7987C57.2782 10.7855 56.5639 10.9503 55.9205 11.2787C55.5743 11.4718 55.2633 11.7219 55.0005 12.0187V10.9287H52.4805V20.0387H55.1205V15.5187C55.102 15.0407 55.1944 14.565 55.3905 14.1287C55.5634 13.7891 55.8354 13.5101 56.1705 13.3287C56.5146 13.1421 56.8991 13.0425 57.2905 13.0387C57.5409 13.0252 57.7914 13.0645 58.0257 13.1541C58.26 13.2437 58.4729 13.3815 58.6505 13.5587C59.0066 14.02 59.1778 14.5977 59.1305 15.1787V20.0387H61.7605V14.8087C61.7926 14.0226 61.624 13.2414 61.2705 12.5387Z" fill="#505050"/>
<path d="M70.6498 10.9287V15.4187C70.6651 15.89 70.5728 16.3585 70.3798 16.7887C70.2191 17.1263 69.9615 17.4083 69.6398 17.5987C69.3069 17.7735 68.9358 17.8628 68.5598 17.8587C68.3083 17.8735 68.0566 17.8337 67.8219 17.7423C67.5872 17.6508 67.375 17.5097 67.1998 17.3287C66.8409 16.8533 66.67 16.2623 66.7198 15.6687V10.9287H64.0898V16.0387C64.0578 16.8343 64.2262 17.6252 64.5798 18.3387C64.8812 18.9205 65.3614 19.3903 65.9498 19.6787C66.5739 19.9768 67.2582 20.1273 67.9498 20.1187C68.6233 20.1237 69.2871 19.9586 69.8798 19.6387C70.2137 19.4489 70.5116 19.2018 70.7598 18.9087V20.0387H73.2598V10.9287H70.6498Z" fill="#505050"/>
<path d="M90.5827 12.539C90.2913 11.9779 89.8338 11.5204 89.2727 11.2291C88.6769 10.9324 88.018 10.7848 87.3527 10.799C86.5425 10.7817 85.7443 10.9968 85.0527 11.419C84.6716 11.6451 84.3332 11.9361 84.0527 12.279C83.8472 11.9405 83.5709 11.6505 83.2427 11.429C82.5971 11.0019 81.8365 10.7821 81.0627 10.799C80.3656 10.782 79.6761 10.9475 79.0627 11.279C78.7333 11.4587 78.4414 11.6997 78.2027 11.9891V10.929H75.7227V20.039H78.3527V15.449C78.3273 14.994 78.406 14.5392 78.5827 14.119C78.7323 13.792 78.976 13.517 79.2827 13.3291C79.5891 13.1605 79.9329 13.0711 80.2827 13.0691C80.5211 13.0567 80.7593 13.0969 80.9805 13.1867C81.2017 13.2766 81.4004 13.4139 81.5627 13.589C81.8909 14.0625 82.0463 14.6346 82.0027 15.209V20.039H84.6327V15.449C84.6167 14.9917 84.7057 14.5367 84.8927 14.119C85.0429 13.7892 85.2907 13.5135 85.6027 13.3291C85.9075 13.1563 86.2523 13.0666 86.6027 13.0691C86.8425 13.0573 87.082 13.0977 87.3047 13.1874C87.5275 13.2772 87.728 13.4142 87.8927 13.589C88.229 14.0591 88.3884 14.6329 88.3427 15.209V20.039H90.9727V14.8091C91.0309 14.0318 90.8969 13.2523 90.5827 12.539Z" fill="#505050"/>
</svg>
