<svg width="104" height="43" viewBox="0 0 104 43" fill="none" xmlns="http://www.w3.org/2000/svg">
<path fill-rule="evenodd" clip-rule="evenodd" d="M9.74875 0.0927734H0.46875C3.08875 0.0927734 3.97875 1.41277 4.27875 4.01277V38.3428C4.27875 40.4828 4.78875 42.5228 6.93875 42.5228H16.1887C14.3487 42.5228 13.5287 40.6528 13.5287 38.3428V4.34277C13.5587 1.99277 12.0787 0.0927734 9.74875 0.0927734Z" fill="#505050"/>
<path fill-rule="evenodd" clip-rule="evenodd" d="M27.0688 5.52277V3.60277C27.1058 3.16098 27.0517 2.71629 26.91 2.29622C26.7682 1.87616 26.5417 1.48966 26.2446 1.16064C25.9474 0.831616 25.5859 0.56708 25.1824 0.3834C24.7789 0.19972 24.342 0.100804 23.8988 0.0927734H16.2188C18.3888 0.0927734 19.1387 1.19277 19.3787 3.35277V5.51277C19.3787 7.29277 19.8088 8.99277 21.5888 8.99277H29.2788C27.7488 8.99277 27.0688 7.43277 27.0688 5.51277" fill="#505050"/>
<path fill-rule="evenodd" clip-rule="evenodd" d="M27.5195 15.3228H18.2695C20.8795 15.3228 21.7795 16.6428 22.0795 19.2428V38.6028C21.7795 41.2028 20.8795 42.5228 18.2695 42.5228H27.5195C29.8395 42.5228 31.3295 40.6328 31.3295 38.3028V19.5328C31.3295 17.2128 29.8395 15.3228 27.5195 15.3228Z" fill="#505050"/>
<path d="M41.8273 23.913C41.9898 23.7601 42.1818 23.6421 42.3917 23.5664C42.6015 23.4908 42.8247 23.459 43.0473 23.473C43.3055 23.4713 43.5622 23.5119 43.8073 23.593C44.0346 23.664 44.2453 23.7796 44.4273 23.933L44.8473 22.993C44.6069 22.7864 44.3233 22.6361 44.0173 22.553C43.6916 22.4627 43.3554 22.4157 43.0173 22.413C42.6353 22.3872 42.252 22.4414 41.8921 22.5723C41.5322 22.7032 41.2036 22.9078 40.9273 23.173C40.4319 23.718 40.1729 24.4373 40.2073 25.173V26.343H38.5273V27.343H40.1873V35.593H41.4673V27.373H44.2673V26.373H41.4073V25.223C41.3727 24.7485 41.5232 24.2789 41.8273 23.913Z" fill="#505050"/>
<path d="M49.5806 34.5726C50.2062 34.575 50.821 34.4093 51.3606 34.0926C51.8817 33.7932 52.308 33.353 52.5906 32.8226C52.8993 32.2377 53.0541 31.5838 53.0406 30.9226C53.0568 30.2611 52.9018 29.6066 52.5906 29.0226C52.308 28.4922 51.8817 28.052 51.3606 27.7526C50.8249 27.4476 50.217 27.2922 49.6006 27.3026C48.9811 27.2924 48.37 27.4477 47.8306 27.7526C47.2996 28.0709 46.8724 28.5364 46.6006 29.0926C46.2815 29.674 46.1228 30.3297 46.1406 30.9926C46.1252 31.6553 46.2838 32.3104 46.6006 32.8926C46.8935 33.3973 47.3189 33.8122 47.8306 34.0926C48.3632 34.3963 48.9675 34.5517 49.5806 34.5426M49.5806 35.6526C48.7418 35.6836 47.9099 35.4902 47.1706 35.0926C46.4619 34.6929 45.8745 34.109 45.4706 33.4026C45.0541 32.6543 44.8436 31.8089 44.8606 30.9526C44.8412 30.0961 45.0518 29.25 45.4706 28.5026C45.874 27.8105 46.4537 27.2377 47.1506 26.8426C47.8909 26.4343 48.7253 26.2274 49.5706 26.2426C50.4224 26.2262 51.2636 26.4331 52.0106 26.8426C52.7117 27.2321 53.2928 27.8062 53.6906 28.5026C54.1049 29.2518 54.3152 30.0966 54.3006 30.9526C54.3102 31.808 54.1002 32.6516 53.6906 33.4026C53.298 34.1107 52.7164 34.6958 52.0106 35.0926C51.2691 35.5079 50.4304 35.7185 49.5806 35.7026" fill="#505050"/>
<path d="M60.6405 34.5727C61.2828 34.5822 61.9156 34.4162 62.4705 34.0927C62.9866 33.7901 63.4089 33.3505 63.6905 32.8227C63.9992 32.2377 64.154 31.5839 64.1405 30.9227C64.1567 30.2611 64.0017 29.6066 63.6905 29.0227C63.4045 28.5058 62.9826 28.0771 62.4705 27.7827C61.9311 27.4778 61.3201 27.3224 60.7005 27.3327C60.084 27.3208 59.4757 27.4763 58.9405 27.7827C58.3985 28.0894 57.9546 28.5436 57.6605 29.0927C57.3458 29.6757 57.1874 30.3303 57.2005 30.9927C57.1901 31.6548 57.3484 32.3087 57.6605 32.8927C57.9597 33.3959 58.3878 33.8101 58.9005 34.0927C59.4295 34.3965 60.0306 34.5519 60.6405 34.5427M60.6405 35.6527C59.8019 35.6812 58.9706 35.4881 58.2305 35.0927C57.529 34.6992 56.9481 34.1218 56.5505 33.4227C56.131 32.6751 55.917 31.8298 55.9305 30.9727C55.9146 30.1153 56.1287 29.2693 56.5505 28.5227C56.9484 27.8263 57.5294 27.2521 58.2305 26.8627C58.9671 26.4543 59.7984 26.2473 60.6405 26.2627C61.4955 26.2459 62.34 26.4527 63.0905 26.8627C63.7908 27.2498 64.3691 27.8247 64.7605 28.5227C65.1793 29.2701 65.3899 30.1161 65.3705 30.9727C65.3875 31.8289 65.177 32.6744 64.7605 33.4227C64.3688 34.1263 63.7865 34.7051 63.0805 35.0927C62.3353 35.5079 61.4934 35.7184 60.6405 35.7027" fill="#505050"/>
<path d="M75.1504 22.5029V28.0929C74.8097 27.5588 74.347 27.1132 73.8004 26.7929C73.1358 26.4186 72.3831 26.2287 71.6204 26.2429C70.7927 26.2315 69.9762 26.4348 69.2504 26.8329C68.5607 27.2228 67.9903 27.7932 67.6004 28.4829C67.2059 29.2447 67 30.0901 67 30.9479C67 31.8058 67.2059 32.6512 67.6004 33.4129C67.9821 34.1165 68.5539 34.6986 69.2504 35.0929C69.9735 35.4989 70.7913 35.706 71.6204 35.6929C72.3896 35.7083 73.149 35.5184 73.8204 35.1429C74.3885 34.8011 74.8627 34.3235 75.2004 33.7529V35.5929H76.4004V22.5029H75.1504ZM74.7204 32.8529C74.4271 33.3744 73.9942 33.8038 73.4704 34.0929C72.931 34.3978 72.32 34.5532 71.7004 34.5429C71.0908 34.5503 70.4901 34.3949 69.9604 34.0929C69.4393 33.7935 69.013 33.3534 68.7304 32.8229C68.4136 32.2407 68.255 31.5856 68.2704 30.9229C68.2526 30.26 68.4114 29.6043 68.7304 29.0229C69.013 28.4925 69.4393 28.0524 69.9604 27.7529C70.4958 27.4571 71.0988 27.3055 71.7104 27.3129C72.3286 27.3039 72.9385 27.4555 73.4804 27.7529C74.0144 28.0706 74.445 28.536 74.7204 29.0929C75.0316 29.6769 75.1867 30.3314 75.1704 30.9929C75.184 31.6542 75.0291 32.308 74.7204 32.8929" fill="#505050"/>
<path d="M49.757 11.2228C49.3634 10.524 48.7858 9.94642 48.087 9.55275C47.3613 9.1546 46.5447 8.95133 45.717 8.96276C44.9951 8.95026 44.2833 9.1334 43.657 9.49275C43.3801 9.65634 43.1304 9.86215 42.917 10.1028V5.57275H40.207V18.4328H42.787V17.3528C43.0189 17.6306 43.2962 17.8673 43.607 18.0528C44.2499 18.4151 44.9795 18.5949 45.717 18.5728C46.5462 18.5858 47.364 18.3788 48.087 17.9728C48.788 17.582 49.3663 17.0037 49.757 16.3028C50.1801 15.5281 50.3906 14.6551 50.367 13.7728C50.3908 12.884 50.1804 12.0046 49.757 11.2228ZM47.307 15.1528C47.1179 15.5367 46.8274 15.8618 46.467 16.0928C46.1033 16.3049 45.688 16.4122 45.267 16.4028C44.8365 16.4126 44.4114 16.3055 44.037 16.0928C43.6775 15.8796 43.3834 15.5717 43.187 15.2028C42.983 14.7696 42.8771 14.2966 42.8771 13.8178C42.8771 13.3389 42.983 12.866 43.187 12.4328C43.3836 12.0665 43.6779 11.7619 44.037 11.5528C44.4077 11.3388 44.829 11.2283 45.257 11.2328C45.6789 11.2268 46.0941 11.3376 46.457 11.5528C46.814 11.7647 47.1075 12.0686 47.307 12.4328C47.5174 12.8642 47.6267 13.3378 47.6267 13.8178C47.6267 14.2977 47.5174 14.7714 47.307 15.2028" fill="#505050"/>
<path d="M56.6173 16.353C57.0367 16.3765 57.4547 16.2867 57.8273 16.093C58.1892 15.8828 58.484 15.5741 58.6773 15.203C58.8814 14.7698 58.9872 14.2968 58.9872 13.818C58.9872 13.3391 58.8814 12.8662 58.6773 12.433C58.4807 12.0668 58.1865 11.7622 57.8273 11.553C57.5545 11.3909 57.2521 11.2851 56.9377 11.2417C56.6234 11.1982 56.3036 11.2181 55.997 11.3001C55.6905 11.3821 55.4034 11.5245 55.1528 11.7191C54.9021 11.9137 54.6928 12.1564 54.5373 12.433C54.327 12.8644 54.2177 13.338 54.2177 13.818C54.2177 14.2979 54.327 14.7716 54.5373 15.203C54.7373 15.5726 55.0347 15.8805 55.3973 16.093C55.7684 16.3049 56.1901 16.412 56.6173 16.403M56.6173 18.623C55.6957 18.6446 54.7837 18.4312 53.9673 18.003C53.2193 17.6051 52.591 17.0148 52.1473 16.293C51.7005 15.5356 51.4648 14.6723 51.4648 13.793C51.4648 12.9136 51.7005 12.0503 52.1473 11.293C52.5886 10.5717 53.2177 9.98403 53.9673 9.59297C54.7892 9.1903 55.6922 8.98096 56.6073 8.98096C57.5225 8.98096 58.4255 9.1903 59.2473 9.59297C59.9963 9.98046 60.6255 10.5647 61.0673 11.283C61.4067 11.8358 61.6292 12.4523 61.7212 13.0944C61.8132 13.7366 61.7727 14.3907 61.6022 15.0166C61.4316 15.6425 61.1347 16.2268 60.7297 16.7335C60.3247 17.2403 59.8202 17.6587 59.2473 17.963C58.4372 18.3888 57.5323 18.6021 56.6173 18.583" fill="#505050"/>
<path d="M72.5691 10.7628C72.2645 10.1774 71.781 9.70442 71.1891 9.41278C70.5684 9.1049 69.8817 8.95383 69.1891 8.97278C68.445 8.95662 67.7089 9.1286 67.0491 9.47278C66.6887 9.666 66.3667 9.92358 66.0991 10.2328V9.09278H63.5391V18.4228H66.2391V13.8228C66.2218 13.3331 66.3212 12.8464 66.5291 12.4028C66.6975 12.0483 66.9789 11.7599 67.3291 11.5828C67.6811 11.4004 68.0726 11.3076 68.4691 11.3128C68.7251 11.297 68.9816 11.3361 69.2214 11.4275C69.4611 11.5189 69.6785 11.6605 69.8591 11.8428C70.2274 12.318 70.4056 12.9133 70.3591 13.5128V18.4328H73.0591V13.0928C73.094 12.2862 72.9218 11.484 72.5591 10.7628" fill="#505050"/>
<path d="M82.2091 9.09277V13.7128C82.22 14.1869 82.1278 14.6577 81.9391 15.0928C81.7767 15.4439 81.5071 15.7345 81.1691 15.9228C80.8289 16.1076 80.4463 16.2007 80.0591 16.1928C79.8022 16.208 79.5451 16.1676 79.3052 16.0744C79.0654 15.9812 78.8484 15.8374 78.6691 15.6528C78.299 15.1631 78.1211 14.5547 78.1691 13.9428V9.09277H75.4691V14.3728C75.4348 15.189 75.6068 16.0006 75.9691 16.7328C76.2875 17.3207 76.7801 17.7958 77.3791 18.0928C78.0282 18.4019 78.7403 18.5559 79.4591 18.5428C80.1566 18.5667 80.8485 18.4118 81.4691 18.0928C81.8191 17.9054 82.1284 17.6505 82.3791 17.3428V18.4428H84.9491V9.09277H82.2091Z" fill="#505050"/>
<path d="M102.699 10.7628C102.4 10.1836 101.928 9.71175 101.349 9.41278C100.729 9.10215 100.042 8.95092 99.3487 8.97278C98.5169 8.95494 97.6976 9.17714 96.9887 9.61278C96.6043 9.84653 96.2655 10.1481 95.9887 10.5028C95.7854 10.148 95.501 9.84648 95.1588 9.62278C94.497 9.18031 93.7146 8.95328 92.9187 8.97278C92.2216 8.96593 91.5338 9.13442 90.9187 9.46278C90.5817 9.65226 90.2805 9.89933 90.0287 10.1928V9.09278H87.4688V18.4228H90.1787V13.7528C90.1643 13.2826 90.2531 12.815 90.4388 12.3828C90.5871 12.0428 90.8438 11.7615 91.1687 11.5828C91.4913 11.3989 91.8575 11.3056 92.2288 11.3128C92.4712 11.2987 92.7138 11.3389 92.9387 11.4306C93.1637 11.5223 93.3652 11.6632 93.5287 11.8428C93.8746 12.3276 94.0376 12.9192 93.9887 13.5128V18.4328H96.6988V13.7528C96.6843 13.2826 96.7731 12.815 96.9587 12.3828C97.1102 12.0449 97.3661 11.7644 97.6888 11.5828C98.0113 11.3989 98.3775 11.3056 98.7487 11.3128C98.9926 11.3 99.2362 11.3408 99.4626 11.4324C99.6889 11.524 99.8924 11.664 100.059 11.8428C100.412 12.3243 100.579 12.9176 100.529 13.5128V18.4328H103.239V13.0928C103.268 12.2866 103.097 11.4858 102.739 10.7628" fill="#505050"/>
</svg>
